<svg width="278" height="212" xmlns="http://www.w3.org/2000/svg">
  <path
    d="m248.73448,116.607c-0.391,-0.474 -1.001,-0.4 -1.021,-0.397a0.514,0.514 0 0 1 -0.24,-0.022c-0.032,-0.012 -3.293,-1.139 -6.334,-1.139c-3.188,0 -11.432,-1.932 -11.781,-2.014a0.5,0.5 0 1 1 0.229,-0.974c0.053,0.012 3.279,0.768 6.462,1.343c-4.102,-17.647 -21.11,-31.438 -23.052,-32.964c-5.593,-4.394 -17.118,-12.26 -31.471,-15.572c-14.185,-3.273 -23.122,1.98 -28.462,5.119l-0.841,0.493c-5.035,2.923 -11.77,13.867 -12.435,16.363c-0.612,2.295 -1.333,7.907 0.323,12.708c1.52,4.408 14.189,11.491 26.262,13.167c0.361,0.05 0.71,0.105 1.066,0.157a0.498,0.498 0 0 1 0.815,0.12c2.135,0.324 4.182,0.686 6.154,1.087a0.5,0.5 0 0 1 0.539,-0.182a0.493,0.493 0 0 1 0.335,0.361a95.169,95.169 0 0 1 7.697,1.956c0.009,0 0.017,-0.004 0.024,-0.003a0.478,0.478 0 0 1 0.229,0.081c5.802,1.763 11.073,4.032 16.317,6.982c10.318,5.804 14.089,13.445 15.509,16.321l0.193,0.391c0.63,1.259 4.033,7.621 9.186,9.159c2.268,0.677 4.606,0.329 6.949,-1.034c7.93,-4.613 7.195,-17.915 6.967,-20.548c-3.127,0.848 -6.773,2.248 -7.778,4.057a0.5,0.5 0 0 1 -0.874,-0.486c1.867,-3.361 10.364,-5.13 12.537,-5.419c0.492,-0.066 0.962,-0.071 1.414,-0.075c1.859,-0.02 3.327,-0.035 4.845,-4.587c0.977,-2.933 0.568,-4.046 0.237,-4.449zm-63.763,-26.059c-1.083,1.583 -5.333,6.583 -6.25,7.083s-5.333,0.583 -9.083,-2.583c0,0 -2.584,-1.083 -3.5,-1.417c-0.917,-0.333 -4.084,-0.75 -4.084,-0.75l-1.25,-0.667s0.5,-1.917 1.417,-2.667c0.917,-0.75 23.417,-9.084 23.417,-9.084s0.416,8.502 -0.667,10.085z"
    fill-rule="evenodd" clip-rule="evenodd" fill="#c4c9af" id="svg_1"/>
  <path
    d="m250.09748,118.209c0.031,-0.973 -0.166,-1.73 -0.605,-2.253c-0.613,-0.73 -1.462,-0.763 -1.788,-0.746c-0.574,-0.193 -3.607,-1.161 -6.565,-1.161c-0.959,0 -2.436,-0.191 -4.016,-0.456c-3.924,-17.803 -20.271,-31.393 -23.51,-33.938c-5.658,-4.445 -17.321,-12.405 -31.863,-15.761c-7.636,-1.762 -13.771,-1.115 -18.681,0.354c-0.095,-0.775 -0.168,-2.691 1.117,-4.211c1.819,-2.149 7.439,-7.076 10.796,-8.355a0.5,0.5 0 1 0 -0.356,-0.935c-0.962,0.366 -2.082,1.004 -3.241,1.778c-0.47,-1.125 -1.581,-4.011 -1.581,-6.144c0,-1.144 0,-2.224 0.387,-2.449c0.32,-0.187 1.252,-0.099 3.867,1.384c4.64,2.629 5.283,2.354 5.558,2.235a0.608,0.608 0 0 0 0.17,-0.12c-0.004,0.003 -0.004,0.008 -0.008,0.011c0.03,-0.023 2.97,-2.303 4.396,-2.938c1.456,-0.647 5.562,-1.452 8.94,-1.291l0.553,0.026c3.734,0.172 12.477,0.577 17.791,2.608c5.578,2.133 22.163,11.738 28.076,20.053c-4.041,1.97 -10.493,4.481 -10.578,4.514a0.5,0.5 0 0 0 0.361,0.932c0.459,-0.178 11.264,-4.381 13.629,-6.24c1.629,-1.28 3.524,-2.042 4.608,-1.853c0.313,0.055 0.528,0.183 0.658,0.391c0.666,1.065 0.153,5.658 -0.856,7.678c-0.26,0.521 -0.878,1.604 -1.66,2.975c-2.224,3.896 -5.583,9.783 -6.211,12.294a0.5,0.5 0 1 0 0.97,0.242c0.578,-2.313 3.855,-8.093 5.933,-11.733c1.456,1.957 7.605,10.599 8.754,18.352c1.305,8.801 -0.598,20.768 -5.045,24.757z"
    fill-rule="evenodd" clip-rule="evenodd" fill="#c4c9af" id="svg_2"/>
  <path
    d="m255.05448,88.967c-2.432,-7.32 -7.538,-14.053 -8.125,-14.811c0.611,-1.074 1.094,-1.928 1.322,-2.385c1.016,-2.03 1.799,-7.074 0.811,-8.655c-0.281,-0.45 -0.743,-0.742 -1.334,-0.845c-1.386,-0.243 -3.505,0.562 -5.399,2.051c-0.394,0.31 -1.062,0.697 -1.888,1.125c-5.958,-8.506 -22.938,-18.358 -28.625,-20.533c-3.674,-1.405 -8.875,-2.048 -13.042,-2.374c-0.057,-0.172 -0.97,-3.007 -0.97,-5.493c0,-1.294 0.34,-2.265 0.865,-2.473c0.477,-0.188 1.243,0.23 2.104,1.148c1.875,2 3.451,3.106 4.835,3.406c-0.694,0.562 -1.974,1.666 -2.268,2.399a0.5,0.5 0 0 0 0.928,0.372c0.194,-0.486 1.485,-1.632 2.34,-2.29a0.49,0.49 0 0 0 0.187,-0.411c0.237,-0.035 0.468,-0.097 0.694,-0.188c1.695,-0.678 5.114,-2.952 5.259,-3.048a0.499,0.499 0 0 0 0.219,-0.357c0.003,-0.027 0.334,-2.767 1.118,-4.335l0.076,-0.155c0.375,-0.755 0.842,-1.694 1.42,-1.741c0.335,-0.027 1.103,0.213 2.483,2.131a67.94,67.94 0 0 0 1.408,1.9a22.23,22.23 0 0 0 -2.271,0.318a0.5,0.5 0 1 0 0.206,0.979c0.02,-0.004 1.175,-0.241 2.869,-0.354c0.442,0.437 0.595,0.356 0.824,0.225a0.535,0.535 0 0 0 0.229,-0.274a23.68,23.68 0 0 1 2.763,0.079c3.778,0.344 13.704,3.535 19.525,9.356c5.757,5.756 9.901,11.089 12.528,16.135a0.496,0.496 0 0 0 0.088,0.306a0.494,0.494 0 0 0 0.121,0.112c1.102,2.177 1.926,4.303 2.465,6.385c2.294,8.843 -1.155,20.84 -3.765,22.295z"
    fill-rule="evenodd" clip-rule="evenodd" fill="#c4c9af" id="svg_3"/>
  <path
    d="m244.32548,43.028c-2.466,-2.466 -5.649,-4.467 -8.814,-6.001c2.725,-0.083 7.466,-0.417 11.444,-1.667c6.063,-1.906 10.465,-4.506 13.622,-6.558l3.916,-2.493c1.737,-1.094 3.11,-1.958 3.624,-2.37c0.439,-0.352 2.298,-1.222 3.397,-0.671c0.681,0.342 1.003,1.215 0.957,2.598c-0.17,5.098 -1.013,10.609 -1.96,12.82c-0.899,2.098 -9.753,16.819 -13.668,20.375c-2.685,-5.038 -6.823,-10.337 -12.518,-16.033z"
    fill-rule="evenodd" clip-rule="evenodd" fill="#c4c9af" id="svg_4"/>
  <path
    d="m212.97248,117.188c-0.104,1.918 -0.876,3.038 -2.233,3.24c-1.947,0.289 -4.571,-1.387 -5.298,-3.384c-0.318,-0.875 -0.291,-1.603 0.082,-2.162c0.525,-0.79 1.726,-1.251 3.472,-1.334c0.759,-0.036 1.402,-0.145 1.97,-0.24c0.773,-0.13 1.385,-0.233 1.637,-0.008c0.495,0.443 0.448,2.431 0.37,3.888zm-1.435,-60.054c-0.383,0.67 -2.17,0.77 -3.354,0.835c-0.408,0.023 -0.793,0.044 -1.107,0.083c-0.771,0.096 -1.516,-0.876 -1.789,-1.339l-0.039,-0.295c-0.141,-1.036 -0.433,-3.191 0.345,-3.385c1.196,-0.299 3.739,0.184 4.947,0.938c1.061,0.666 1.545,2.202 0.997,3.163zm-8.602,9.428c-0.869,-0.301 -1.836,-1.154 -1.969,-2.084c-0.052,-0.361 0.217,-0.851 0.668,-1.221c0.41,-0.336 0.891,-0.502 1.17,-0.403c0.82,0.289 1.195,0.893 1.113,1.794c-0.093,1.019 -0.727,1.853 -0.982,1.914z"
    fill-rule="evenodd" clip-rule="evenodd" fill="#877e57" id="svg_5"/>
  <path d="m217.40848,34.705z" fill-rule="evenodd" clip-rule="evenodd" fill="#4eb9ef" id="svg_6"/>
  <path
    d="m243.63848,29.382c0,-0.438 0.265,-1.027 0.756,-1.257c0.655,-0.307 1.635,0.039 2.757,0.974c2.112,1.76 3.949,2.774 4.914,3.248a50.127,50.127 0 0 1 -5.41,2.058c-0.917,0.288 -1.884,0.521 -2.858,0.718c-0.035,-0.989 -0.159,-4.744 -0.159,-5.741z"
    fill-rule="evenodd" clip-rule="evenodd" fill="#c4c9af" id="svg_7"/>
  <path d="m179.14448,46.685a0.494,0.494 0 0 0 -0.158,0.243a0.425,0.425 0 0 1 0.158,-0.243z" fill-rule="evenodd"
        clip-rule="evenodd" fill="#4eb9ef" id="svg_8"/>
  <path
    d="m18.54348,63.299c-0.605,0.073 -2.057,-2.45 -3.065,-5.317l0.089,-1.054a72.017,72.017 0 0 0 4.07,2.433c-0.359,3.805 -1.063,3.935 -1.094,3.938zm11.578,0.419c0.494,0.113 0.98,0.205 1.457,0.272c-0.188,0.289 -0.528,0.844 -0.95,1.654l-0.507,-1.926z"
    fill-rule="evenodd" clip-rule="evenodd" fill="#ebf4ed" id="svg_9"/>
  <path
    d="m32.54848,64.334a0.498,0.498 0 0 0 0.079,-0.196c0.604,0.081 1.242,0.17 1.929,0.27c2.46,0.357 5.466,0.793 8.386,0.873c-0.303,2.067 -4.316,10.853 -6.289,15.17a146.761,146.761 0 0 0 -1.31,2.905c-0.655,1.571 -3.395,4.566 -5.175,5.959c-0.708,-1.55 -1.317,-2.567 -1.881,-3.122c-1.729,-13.063 4.201,-21.772 4.261,-21.859z"
    fill-rule="evenodd" clip-rule="evenodd" fill="#e0957a" id="svg_10"/>
  <path
    d="m27.27548,86.671c0.062,0.011 0.698,0.196 2.058,3.215c-0.027,0.015 -0.059,0.036 -0.085,0.049c-0.854,0.427 -1.908,0.155 -2.604,-0.123c0.029,-1.639 0.35,-3.011 0.631,-3.141z"
    fill-rule="evenodd" clip-rule="evenodd" fill="#ebf4ed" id="svg_11"/>
  <path
    d="m43.75748,121.789c0.004,-0.003 0.01,-0.003 0.014,-0.006c1.924,-1.443 4.264,-2.926 5.177,-3.194a40.125,40.125 0 0 0 -0.815,4.833c-0.041,0.015 -0.082,0.027 -0.119,0.054c-1.009,0.725 -2.688,1.968 -4.112,3.21a90.277,90.277 0 0 1 -0.145,-4.897zm11.059,38.31c-3.217,-3.976 -5.495,-9.063 -7.086,-13.901l0.066,-0.394a0.495,0.495 0 0 0 -0.377,-0.57l-0.073,-0.241c0.032,-0.015 0.065,-0.023 0.095,-0.045c0.96,-0.73 3.433,-2.476 5.022,-3.15c0.089,0.611 0.253,1.088 0.528,1.309c0.354,0.283 0.828,0.137 1.154,0.001c1.884,-0.78 7.161,-5.308 7.614,-7.022a24.059,24.059 0 0 0 2.333,-1.195c-3.505,4.393 -9.911,14.049 -9.276,25.208z"
    fill-rule="evenodd" clip-rule="evenodd" fill="#f1e9c8" id="svg_12"/>
  <path
    d="m53.58448,142.246c-0.075,-0.143 -0.13,-0.414 -0.161,-0.79a0.501,0.501 0 0 0 0.207,-0.497a0.492,0.492 0 0 0 -0.243,-0.337c-0.008,-0.942 0.065,-2.162 0.219,-3.429c0.881,0.242 1.855,0.344 2.913,0.284c1.156,-0.066 2.437,-0.332 3.813,-0.818c-1.414,1.825 -5.611,5.4 -6.748,5.587z"
    fill-rule="evenodd" clip-rule="evenodd" fill="#ebf4ed" id="svg_13"/>
  <path
    d="m52.38148,140.754c-1.812,0.674 -4.563,2.665 -5.337,3.24a79.6,79.6 0 0 1 -0.977,-3.66c0.139,0.099 0.34,0.187 0.619,0.184c1.479,-0.013 4.484,-2.942 5.449,-3.922c0.164,0.09 0.326,0.183 0.501,0.26c-0.139,1.1 -0.289,2.616 -0.255,3.898z"
    fill-rule="evenodd" clip-rule="evenodd" fill="#f1e9c8" id="svg_14"/>
  <path
    d="m46.64848,139.514c-1.007,-1.055 0.391,-5.834 1.733,-8.983c0.31,1.458 0.787,2.799 1.498,3.948a5.994,5.994 0 0 0 1.401,1.554c-2.021,2.032 -4.121,3.623 -4.632,3.481z"
    fill-rule="evenodd" clip-rule="evenodd" fill="#ebf4ed" id="svg_15"/>
  <path
    d="m45.36948,137.187a78.52,78.52 0 0 1 -1.018,-6.237a27.64,27.64 0 0 0 2.913,-0.34c-0.566,1.381 -1.641,4.243 -1.895,6.577z"
    fill-rule="evenodd" clip-rule="evenodd" fill="#f1e9c8" id="svg_16"/>
  <path
    d="m48.02748,124.702c-0.104,1.667 -0.062,3.254 0.151,4.727c-2.704,0.524 -5.339,0.7 -5.854,0.394c0.201,-0.721 2.965,-3.105 5.703,-5.121z"
    fill-rule="evenodd" clip-rule="evenodd" fill="#ebf4ed" id="svg_17"/>
  <path
    d="m47.94048,166.541c-1.909,-5.132 -1.093,-13.901 -0.523,-18.203c1.649,4.565 3.916,9.214 7.007,12.867a0.496,0.496 0 0 0 0.494,0.158c0.09,0.867 0.215,1.739 0.397,2.62c1.437,6.907 7.431,14.414 15.691,20.129c-4.996,0.145 -9.061,-1.353 -12.31,-3.536l-0.006,-0.012a0.488,0.488 0 0 0 -0.24,-0.151c-6.903,-4.771 -10.035,-12.593 -10.51,-13.872zm26.511,24.879c-0.639,0.102 -1.422,0.435 -2.021,0.729a0.5,0.5 0 0 0 -0.211,-0.093c-0.69,-3.66 -5.706,-5.704 -7.081,-6.198l0,-1.36c2.226,0.545 4.628,0.761 7.207,0.548c0.013,-0.001 0.021,-0.008 0.033,-0.01a55.396,55.396 0 0 0 5.916,3.346c-2.074,0.204 -3.34,1.882 -3.843,3.038z"
    fill-rule="evenodd" clip-rule="evenodd" fill="#e19c9a" id="svg_18"/>
  <path
    d="m48.67248,193.618c0.364,-3.579 6.755,-9.664 9.645,-12.093a22.324,22.324 0 0 0 5.821,2.705l0,1.672c-1.557,0.76 -8.793,4.443 -11.213,8.303l-4.253,-0.587z"
    fill-rule="evenodd" clip-rule="evenodd" fill="#ebf4ed" id="svg_19"/>
  <path
    d="m53.23548,195.936c0.88,-3.448 8.296,-7.674 11.436,-9.18c1.017,0.359 6.263,2.383 6.603,5.802a37.232,37.232 0 0 0 -3.431,2.876c-5.174,1.206 -12.579,0.679 -14.608,0.502zm11.333,6.23c0.192,-1.922 1.988,-4.1 3.813,-5.857a0.497,0.497 0 0 0 0.19,-0.185a37.232,37.232 0 0 1 3.098,-2.612c0.13,0.037 0.268,0.039 0.387,-0.031c0.707,-0.411 2.027,-1.052 2.682,-1.091c0.475,0.176 2.803,1.112 3.322,2.711c-1.849,0.88 -9.906,4.886 -12.844,9.122a2.615,2.615 0 0 1 -0.648,-2.057z"
    fill-rule="evenodd" clip-rule="evenodd" fill="#ebf4ed" id="svg_20"/>
  <path
    d="m78.75548,195.879c2.646,-0.261 5.78,5.834 7.033,8.819c-5.451,1.226 -17.848,1.863 -20.611,1.992c0.637,-4.002 9.821,-9.073 13.578,-10.811z"
    fill-rule="evenodd" clip-rule="evenodd" fill="#ebf4ed" id="svg_21"/>
  <path
    d="m78.33148,121.003c0.006,1.346 -0.052,3.135 -0.327,3.87l-0.001,0.002a33.577,33.577 0 0 0 -4.274,1.882a67.33,67.33 0 0 0 4.602,-5.754z"
    fill-rule="evenodd" clip-rule="evenodd" fill="#f1e9c8" id="svg_22"/>
  <path
    d="m168.38948,114.028c1.956,0.301 3.835,0.635 5.652,1.001c-0.557,1.359 -1.705,3.353 -3.237,3.353c-1.512,0 -2.186,-2.651 -2.415,-4.354zm25.446,7.421l-6.883,5.475l-3.965,-2.79l0.439,-6.732a78.61,78.61 0 0 1 10.409,4.047zm8.636,13.266c-0.617,0 -1.149,-0.327 -1.388,-0.853c-0.225,-0.495 -0.128,-1.036 0.264,-1.484c0.967,-1.105 1.89,-3.982 2.265,-5.25a35.484,35.484 0 0 1 5.104,4.661c-0.005,0.008 -0.014,0.013 -0.018,0.021c-0.867,1.589 -4.658,2.905 -6.227,2.905z"
    fill-rule="evenodd" clip-rule="evenodd" fill="#fff" id="svg_23"/>
  <path fill-rule="evenodd" clip-rule="evenodd" fill="#4eb9ef" d="m259.98048,33.882z" id="svg_24"/>
  <path
    d="m161.57948,168.936c-11.631,5.897 -29.022,9.089 -29.196,9.121c-0.006,0.001 -0.01,0.004 -0.015,0.006a1.352,1.352 0 0 1 -0.062,-0.218c2.797,-3.896 6.967,-9.923 7.322,-11.698c0.437,-2.186 0.435,-19.047 -2.304,-21.785a0.5,0.5 0 0 0 -0.707,0.707c2.258,2.257 2.572,18.168 2.03,20.882c-0.393,1.96 -7.047,11.228 -9.578,14.633a0.501,0.501 0 0 0 0.803,0.597c0.227,-0.305 0.877,-1.183 1.739,-2.374c0.526,1.008 1.954,2.591 5.798,3.071c1.33,0.167 2.16,0.517 2.535,1.07c0.562,0.83 0.196,2.225 -0.267,3.992c-0.252,0.961 -0.537,2.051 -0.702,3.205c-0.601,4.203 -4.477,7.663 -7.621,9.825c-2.467,1.696 -21.791,4.587 -27.605,3.258c-5.312,-1.214 -14.84,0.764 -16.975,1.239c-0.827,-2.004 -4.133,-9.429 -7.741,-9.596c-0.532,-1.789 -2.59,-2.853 -3.561,-3.265c0.412,-0.814 1.509,-2.449 3.612,-2.227a0.496,0.496 0 0 0 0.531,-0.384c10.314,4.678 20.305,5.304 27.578,1.667a0.5,0.5 0 1 0 -0.447,-0.895c-7.288,3.645 -17.475,2.825 -27.948,-2.249c-11.686,-5.66 -20.729,-15.2 -22.505,-23.739c-3.403,-16.368 10.556,-30.57 10.697,-30.711a0.495,0.495 0 0 0 0.112,-0.178a41.517,41.517 0 0 0 3.823,-3.247c3.814,-2.737 13.742,-8.188 29.107,-4.94a0.5,0.5 0 1 0 0.207,-0.978c-8.813,-1.863 -15.893,-0.921 -21.117,0.766c0.297,-1.663 0.194,-4.438 0.18,-4.798c-0.001,-0.021 -0.011,-0.038 -0.014,-0.058c2.746,-4.001 5.49,-8.759 8.133,-14.375a0.5,0.5 0 1 0 -0.904,-0.426c-5.263,11.182 -10.889,18.92 -16.104,23.949c-1.271,0.904 -1.937,1.55 -1.964,1.577a0.493,0.493 0 0 0 -0.142,0.332c-4.548,3.846 -8.682,5.604 -11.848,5.785c-2.596,0.148 -4.631,-0.749 -5.731,-2.526c-4.184,-6.757 -0.246,-20.633 5.181,-30.666c5.318,-9.83 13.262,-11.898 13.347,-11.919a0.499,0.499 0 1 0 -0.238,-0.97c-0.342,0.083 -8.445,2.17 -13.987,12.414c-2.474,4.572 -4.586,9.754 -5.843,14.742c-1.22,0.054 -3.988,1.948 -5.431,2.996c0.02,-3.22 0.177,-6.573 0.54,-8.751c0.562,-3.375 0.706,-13.091 -0.912,-14.016c-0.954,-0.545 -2.999,-2.171 -3.596,-2.649c3.2,-4.53 8.432,-11.263 10.571,-13.938c1.021,-1.276 2.63,-2.365 4.333,-3.519c2.664,-1.803 5.42,-3.669 6.575,-6.611c7.304,-18.592 -4.65,-23.778 -11.072,-26.564a53.726,53.726 0 0 1 -2.008,-0.901c-0.809,-0.393 -1.678,-0.914 -2.57,-1.505c2.714,-1.708 7.172,-8.818 6.852,-15.403c-0.146,-2.984 -1.647,-4.109 -2.881,-4.527c-3.151,-1.067 -7.645,1.277 -10.001,4.062c-2.615,3.092 -3.112,6.472 -3.163,8.322a112.556,112.556 0 0 1 -2.463,-2.379c-0.002,-1.003 0.406,-6.668 9.173,-14.412c8.041,-7.104 20.518,-8.973 24.737,-9.416c-2.507,2.731 -3.722,6.473 -3.399,9.592a0.499,0.499 0 1 0 0.994,-0.102c-0.331,-3.2 1.099,-7.115 3.98,-9.646a0.49,0.49 0 0 0 0.311,-0.273a10.327,10.327 0 0 1 3.523,-1.884c1.92,-0.582 4.143,-0.038 6.26,1.533c1.003,0.744 2.027,1.777 2.938,3.06l-0.001,0.004a0.499,0.499 0 0 0 0.396,0.582c1.495,2.32 2.595,5.367 2.595,9.01c0,4.016 -0.976,6.967 -2.901,8.772c-2.067,1.939 -4.894,2.192 -6.899,2.062c-2.751,-0.177 -6.34,-4.579 -7.384,-9.057c-0.391,-1.676 -0.701,-4.685 1.601,-6.01c0.905,-0.521 1.729,-0.599 2.519,-0.237c3.104,1.421 4.561,8.823 4.574,8.897a0.501,0.501 0 0 0 0.982,-0.188c-0.062,-0.325 -1.568,-7.982 -5.14,-9.618c-1.09,-0.5 -2.245,-0.406 -3.435,0.278c-2.091,1.204 -2.847,3.793 -2.075,7.104c1.038,4.454 4.805,9.603 8.293,9.828c3.16,0.204 5.805,-0.602 7.648,-2.331c2.135,-2.001 3.217,-5.198 3.217,-9.501c0,-3.099 -0.801,-6.114 -2.218,-8.671c3.311,0.917 11.986,3.943 18.841,11.832c6.58,7.574 8.646,17.693 10.015,24.389c0.449,2.201 0.805,3.94 1.225,5.118c1.615,4.523 8.668,18.372 12.238,23.131c3.439,4.586 11.383,18.801 11.463,18.944a0.49,0.49 0 0 0 0.162,0.167c0.139,1.58 0.435,3.205 0.969,4.752c0.596,1.73 2.489,3.649 5.169,5.502a0.5,0.5 0 0 0 0.127,0.532l-0.001,0c0.056,0.052 5.546,5.396 6.679,18.513a0.5,0.5 0 0 0 0.997,-0.086c-0.836,-9.669 -3.916,-15.167 -5.697,-17.611c5.419,3.222 12.964,6.034 19.797,6.982c0.383,0.053 0.752,0.111 1.129,0.167c0.186,1.572 0.902,5.505 3.439,5.505c2.332,0 3.703,-2.798 4.229,-4.148a94.547,94.547 0 0 1 7.412,1.869l-0.426,6.52l-1.506,-0.695a0.5,0.5 0 1 0 -0.418,0.909l2.125,0.981l4.463,3.141a0.501,0.501 0 0 0 0.6,-0.018l2.974,-2.366l4.345,1.931a0.5,0.5 0 1 0 0.406,-0.913l-3.869,-1.72l3.478,-2.766a0.488,0.488 0 0 0 0.146,-0.209a84.957,84.957 0 0 1 4.298,2.253a41.172,41.172 0 0 1 3.694,2.344c-0.371,1.32 -1.316,4.262 -2.158,5.225c-0.652,0.745 -0.811,1.701 -0.422,2.556c0.396,0.875 1.299,1.44 2.298,1.44c0.876,0 2.281,-0.323 3.632,-0.877c-11.685,13.564 -26.646,25.031 -44.525,34.097z"
    fill-rule="evenodd" clip-rule="evenodd" fill="#e19c9a" id="svg_25"/>
  <path
    d="m36.34648,98.682c-0.34,0.776 -1.276,1.033 -2.002,1.112c-2.259,0.246 -5.22,-0.843 -5.969,-1.873l-0.184,-0.252c-1.282,-1.751 -3.179,-4.347 -2.286,-7.086c0.81,0.378 2.41,0.936 3.789,0.247c1.736,-0.868 5.688,-4.968 6.571,-7.088c0.182,-0.436 0.674,-1.512 1.296,-2.874c2.976,-6.512 6.135,-13.554 6.385,-15.576c3.439,-0.01 6.656,-0.59 8.585,-2.484c1.529,-1.501 2.124,-3.684 1.769,-6.487a0.499,0.499 0 1 0 -0.992,0.126c0.318,2.512 -0.165,4.359 -1.478,5.648c-3.385,3.323 -11.657,2.121 -17.131,1.325a110.19,110.19 0 0 0 -2.67,-0.367c-6.798,-0.809 -16.515,-7.351 -16.612,-7.417a0.498,0.498 0 0 0 -0.778,0.373l-0.136,1.626c-1.083,0.254 -2.343,0.032 -3.603,-0.687c-2.519,-1.436 -4.54,-4.439 -5.275,-7.837c-0.321,-1.489 0.11,-3.08 1.285,-4.728c2.775,-3.893 8.932,-6.994 11.786,-7.336c1.144,-0.137 2.487,-0.213 3.786,-0.286c3.872,-0.217 7.216,-0.405 7.942,-2.003c0.58,-1.275 2.271,-1.715 2.875,-1.835a108.93,108.93 0 0 0 3.186,3.06a0.49,0.49 0 0 0 0.424,0.388c3.062,2.8 7.397,6.456 10.843,8.129c0.602,0.293 1.304,0.597 2.046,0.919c6.542,2.838 17.491,7.588 10.54,25.281c-1.043,2.653 -3.667,4.431 -6.205,6.149c-1.769,1.197 -3.438,2.328 -4.553,3.721c-1.927,2.409 -11.982,15.251 -13.234,18.112z"
    fill-rule="evenodd" clip-rule="evenodd" fill="#f1e9c8" id="svg_26"/>
  <path
    d="m185.63848,80.465s-5.543,2.053 -11.237,4.212c-0.146,2.651 -0.82,7.334 -1.597,7.205c-0.73,-0.122 -0.883,-4.109 -0.911,-6.25c-4.879,1.864 -9.277,3.594 -9.672,3.917c-0.917,0.75 -1.417,2.667 -1.417,2.667l1.25,0.667s3.167,0.417 4.084,0.75c0.916,0.333 3.5,1.417 3.5,1.417c3.75,3.167 8.166,3.083 9.083,2.583s5.167,-5.5 6.25,-7.083s0.667,-10.085 0.667,-10.085z"
    fill-rule="evenodd" clip-rule="evenodd" fill="#fff" id="svg_27"/>
  <path
    d="m172.80448,91.882c0.776,0.129 1.45,-4.553 1.597,-7.205c-0.839,0.318 -1.68,0.638 -2.508,0.955c0.028,2.141 0.181,6.128 0.911,6.25zm41.595,48.639a6.206,6.206 0 0 0 -0.042,-0.082l-0.195,-0.396c-0.8,-1.619 -2.178,-4.389 -4.77,-7.471a4.394,4.394 0 0 1 -0.809,0.848c-0.018,0.039 -0.032,0.079 -0.061,0.114c-7.52,9.102 -16.48,17.288 -26.757,24.488c7.428,-1.191 21.967,-5.058 32.634,-17.501z"
    fill-rule="evenodd" clip-rule="evenodd" id="svg_28"/>
  <path
    d="m214.39948,140.521c-10.667,12.443 -25.206,16.311 -32.633,17.501a160.364,160.364 0 0 1 -16.86,10.308c5.154,0.365 23.614,1.206 34.673,-4.394c10.403,-5.268 20.263,-10.686 22.421,-14.757c-4.108,-2.307 -6.757,-6.989 -7.601,-8.658z"
    fill-rule="evenodd" clip-rule="evenodd" fill="#c4c9af" id="svg_29"/>
  <path
    d="m51.47248,26.74c-0.096,-1.944 -0.836,-3.165 -2.203,-3.628c-2.416,-0.818 -6.499,0.903 -8.916,3.761c-2.957,3.494 -2.975,7.48 -2.911,8.618c2.055,1.884 4.71,4.182 7.261,5.982c0.024,-0.016 0.044,-0.038 0.071,-0.049c2.167,-0.93 7.024,-8 6.698,-14.684zm-9.418,3.079c-0.5,0.563 -1.5,0.688 -1.688,0.375c-0.188,-0.312 0.103,-1.108 0.438,-1.625c0.812,-1.25 1.75,-1.188 2,-0.875c0.25,0.313 -0.25,1.563 -0.75,2.125z"
    fill-rule="evenodd" clip-rule="evenodd" fill="#fff" id="svg_30"/>
  <path
    d="m40.80448,28.57c-0.335,0.516 -0.625,1.312 -0.438,1.625c0.188,0.313 1.188,0.188 1.688,-0.375c0.5,-0.562 1,-1.812 0.75,-2.125c-0.25,-0.313 -1.187,-0.375 -2,0.875z"
    fill-rule="evenodd" clip-rule="evenodd" id="svg_31"/>
  <path
    d="m77.47148,24.549s-2.333,-12.167 -7.833,-9s0.833,15.667 6,16c5.166,0.333 10.333,-2 10.333,-11.333s-7.333,-16.334 -12.833,-14.667s-8.667,7.5 -8.167,12.333m4.333,-10.166s-16.499,0.833 -26.5,9.666c-10,8.833 -9.333,15 -9.333,15s-2.667,0.333 -3.5,2.167c-0.833,1.833 -7.167,1.5 -11.333,2c-4.167,0.5 -14.833,6.5 -13.5,12.667c1.333,6.167 6.333,10 9.833,8.833m0,0l0.167,-2m0,0s9.833,6.666 16.833,7.5s23.333,4.667 21.833,-7.166m-20.333,-24.001s8.667,8.833 14.5,11.667s20.768,6.638 12.833,26.833c-1.833,4.667 -8.166,6.667 -10.833,10s-12,15.333 -13.167,18c-1.166,2.667 -7.5,1.167 -8.833,-0.667c-1.333,-1.833 -3.833,-5 -2.333,-8.333c0,0 2.166,1.333 3.833,0.5c1.667,-0.833 5.5,-4.833 6.333,-6.833c0.834,-2 7.667,-16.334 7.667,-18.5m-11.333,-1s-6.167,8.833 -4.334,22.333m-1.666,3.666s0,-8.5 3.666,-0.333m-14.833,-31.666s4.167,12 5.167,1.333m9.333,3.833l0.834,3.167m-17.167,-18.166l1.833,-1m24.334,48.166s2.666,2.167 3.833,2.833c1.166,0.667 1.333,9.5 0.667,13.5c-0.667,4 -0.667,12 -0.334,16m25.667,-36.833s-8.167,2 -13.667,12.167c-5.5,10.166 -9.5,24.167 -5.167,31.166c4.334,7 22,2 36.667,-29.166m-43.5,16.333s4.667,-3.5 5.833,-3.333m-0.999,5.833s-6.501,4.667 -6.501,6s6.667,0 6.667,0m-0.5,0.333s-3.419,7.915 -1.667,9.667c1,1 5.667,-3.833 5.667,-3.833m1.167,0.833s-0.667,5.167 0.166,5.833c0.834,0.667 7.834,-5.333 8,-6.833m-17.499,-5.334s1.833,19.5 10.999,30.333m-7.666,-16.333s4.166,-3.167 6,-3.5m-5.834,4.667s-2.5,13.833 0.167,21s10.667,19 24.833,17.833m-5.666,-51.833s-14.334,14.333 -10.834,31.167s33.5,35.167 51.167,26.333m-42.333,-6.166l0,2.167m0,-0.001s7.333,2.333 7.166,6.833c0,0 2,-1.167 3,-1.167c0,0 1.167,-3.333 4.334,-3m-14.5,-2.666s-11.667,5.5 -12,10.167c0,0 9.333,1 15.5,-0.5m-9.834,-15s-10.333,8.5 -10.166,13.167m0,-0.001l4.833,0.667m21.833,-2.833s3.5,1.167 3.834,3.5c0,0 -14.167,6.5 -14,11.833c0,0 16,-0.666 21.833,-2.166c0,0 -4,-10.167 -7.833,-9.667m-6.5,-2.833s-11.334,7.833 -7.167,12.167m21.5,0.333s11.334,-2.667 17.167,-1.333s25.333,-1.5 28,-3.333c2.666,-1.833 7.166,-5.5 7.833,-10.167s3.333,-8.167 -2,-8.833s-5.667,-3.5 -5.667,-3.5m-2.333,2.999s9.167,-12.333 9.667,-14.833s0.333,-18.833 -2.167,-21.334m-4.5,33.834s17.5,-3.167 29.333,-9.167c11.834,-6 30.5,-17 46.334,-36.167m-44.667,35.5s23.167,2.333 36.333,-4.333c13.167,-6.667 21.167,-11.5 22.834,-15.333m16.166,-22s2,16.166 -7.166,21.5c-9.167,5.333 -15.5,-5.667 -16.834,-8.333c-1.333,-2.666 -4.833,-10.5 -15.5,-16.5c-10.666,-6 -21,-8.833 -33,-10.5c-12,-1.666 -25,-8.666 -26.666,-13.5c-1.667,-4.833 -1,-10.5 -0.334,-13c0.667,-2.5 7.5,-13.667 12.667,-16.667s14.5,-9.167 29.667,-5.667c15.166,3.5 27,12 31.666,15.667c4.667,3.667 19.667,17 23.334,33.667m-50.667,-29.334l0.167,-4.167m0,0s-22.167,8.167 -23.5,8.834c-1.334,0.666 -1.834,2.333 -2,3.333m1.333,0.5s4.167,0.333 6,1.333c1.833,1 8.833,6.167 12,2.5s5.167,-6.333 5.167,-6.333m-21,3.333s2.666,1.667 4.833,3.5c2.167,1.833 10.667,3.833 11.667,3.333m23.5,-9.333l5.666,1.167m-6.5,4l4.5,2.667m-6.333,1.5l0.833,3.166m-9.5,1.334l0.834,1.667m11.333,10.499c-0.856,-2.354 0.5,-4 4,-4.167s4.833,-2 4.5,4.167c-0.333,6.167 -7.167,3.667 -8.5,0m16.333,4.667l2.167,0.333m0,-3.666l1.333,1m0.667,-3.334l1.5,1.667m-59.167,-4.667s0.334,5.667 3,5.667c2.667,0 4,-4.5 4,-4.5m8.167,2.333l-0.5,7.667l4.5,3.167l7.333,-5.834m-4,3.334l4.5,2m-14.5,-3.667l2.167,1m20.833,2s-1.166,4.333 -2.333,5.667c-1.167,1.333 -0.167,3.166 1.5,3.166s5.667,-1.333 6.667,-3.166m20.333,-19.501s8.5,2 11.667,2c3.166,0 6.5,1.167 6.5,1.167s3.333,-0.5 1.333,5.5s-4.167,4.667 -6.667,5c-2.5,0.333 -10.5,2.167 -12.166,5.167m-67.5,-66.667s-0.667,-2.833 1.166,-5c1.834,-2.167 7.5,-7.167 11,-8.5m-3.666,2s-1.834,-4 -1.834,-6.833s0,-4.333 5,-1.5c5,2.834 5.167,2.167 5.167,2.167s3,-2.333 4.5,-3s5.667,-1.5 9.167,-1.333c3.5,0.167 12.833,0.5 18.5,2.666c5.666,2.167 22.666,12 28.5,20.5m-11,5s11.166,-4.333 13.5,-6.167c2.333,-1.833 5.166,-2.667 6,-1.333c0.833,1.333 0.166,6.167 -0.834,8.167s-7,11.833 -7.833,15.167m-11.667,-0.334s5.334,3.333 7.167,3.333m-10.333,-15.666s-0.167,5.833 0.833,6.666m-14.5,-9.833l0.333,1.5m3.167,-2.667l0.833,1.5m1.5,-4.166s1.167,1.833 1,2.5m1.5,-4.167l1.334,1.667m-16.334,-10.167s1,1.833 2.334,1.667c1.333,-0.167 4.166,0 4.833,-1.167s0.167,-3 -1.167,-3.833c-1.333,-0.833 -4,-1.333 -5.333,-1c-1.333,0.333 -0.833,3 -0.667,4.333m-1.833,5.5c-0.994,-0.351 -2.667,1 -2.5,2.167c0.167,1.167 1.333,2.166 2.333,2.5c1,0.333 3,-3.667 0.167,-4.667m43.5,12s7.833,10 9.166,19c1.334,9 -0.666,22.333 -5.999,25.833m-51.334,-76.499s-1,-3 -1,-5.667s1.334,-4.333 3.834,-1.667c2.5,2.667 4.5,3.834 6.166,3.167c1.667,-0.667 5.167,-3 5.167,-3s0.333,-2.833 1.167,-4.5c0.833,-1.667 1.833,-4 4.833,0.167s2.333,2.667 2.333,2.667m-14.5,5.333s-2.166,1.666 -2.5,2.5m13.5,-7.5s3.167,-0.667 6.834,-0.333c3.666,0.333 13.833,3.5 19.833,9.5c6,6 13,14.167 15.333,23.167c2.334,9 -1.166,22 -4.333,23m-23.667,-37.168l-0.166,1.667m3.5,-2.5l1,1.333m0.833,-3.333l1.833,0.167m-18,9.166l1.834,0.167m11.166,-22.5s7.667,0.167 13.5,-1.667c5.834,-1.833 10.167,-4.333 13.5,-6.5c3.334,-2.167 6.667,-4.167 7.5,-4.833c0.834,-0.667 5.334,-2.667 5.167,2.333c-0.167,5 -1,10.667 -2,13s-10.667,18.333 -14.333,21m0.166,-23.333s-1.666,4.833 -0.333,5.833m3.5,-9s9.166,-0.167 9.166,1.333s-7.166,7.833 -8.166,9m-17.667,-8.333s-0.166,-4.833 -0.166,-6c0,-1.167 1.333,-3.167 4.333,-0.667s5.5,3.5 5.5,3.5m-108.167,73.334s5.667,5.333 6.834,18.833m-13.167,-29.667s-8,-14.333 -11.5,-19c-3.5,-4.666 -10.499,-18.333 -12.167,-22.999c-1.666,-4.667 -2.5,-19.5 -11.333,-29.667s-20.5,-12.333 -20.5,-12.333m-46,25.166s-0.667,-5 3,-9.333s11.667,-6.667 12,0.167c0.333,6.833 -4.667,14.167 -7,15.167m23.833,88.832s10.834,-10.833 31.334,-6.5m-21.334,-4.5s0.167,4 -0.333,5.333"
    fill="none" stroke="#000" stroke-linecap="round" stroke-linejoin="round" stroke-miterlimit="2.613" id="svg_32"/>
</svg>
